<svg width="30" height="30" viewBox="0 0 30 30" fill="none" xmlns="http://www.w3.org/2000/svg">
<path d="M18.965 8.74999L10.7325 16.9825C10.4938 17.2131 10.3033 17.489 10.1723 17.794C10.0412 18.099 9.97228 18.427 9.9694 18.759C9.96651 19.0909 10.0298 19.4201 10.1555 19.7274C10.2812 20.0346 10.4668 20.3137 10.7015 20.5485C10.9363 20.7832 11.2154 20.9688 11.5226 21.0945C11.8299 21.2202 12.1591 21.2835 12.491 21.2806C12.823 21.2777 13.151 21.2088 13.456 21.0777C13.761 20.9467 14.0369 20.7563 14.2675 20.5175L22.285 12.285C23.1958 11.342 23.6998 10.079 23.6884 8.76799C23.677 7.457 23.1512 6.20294 22.2241 5.2759C21.2971 4.34886 20.043 3.82301 18.732 3.81162C17.421 3.80023 16.158 4.3042 15.215 5.21499L7.19627 13.4462C5.78963 14.8529 4.99939 16.7607 4.99939 18.75C4.99939 20.7393 5.78963 22.6471 7.19627 24.0537C8.60292 25.4604 10.5107 26.2506 12.5 26.2506C14.4893 26.2506 16.3971 25.4604 17.8038 24.0537L25.625 16.25" stroke="#80CDB9" stroke-width="2" stroke-linecap="round" stroke-linejoin="round"/>
</svg>
